<svg width="50" height="50" viewBox="0 0 50 50" fill="none" xmlns="http://www.w3.org/2000/svg">
<g id="fe:document">
<path id="Vector" d="M31.25 8.33342H12.5V41.6668H37.5V14.5834H31.25V8.33342ZM12.5 4.16675H33.3334L41.6667 12.5001V41.6668C41.6667 42.7718 41.2277 43.8316 40.4463 44.613C39.6649 45.3944 38.6051 45.8334 37.5 45.8334H12.5C11.395 45.8334 10.3352 45.3944 9.55376 44.613C8.77236 43.8316 8.33337 42.7718 8.33337 41.6668V8.33342C8.33337 7.22835 8.77236 6.16854 9.55376 5.38714C10.3352 4.60573 11.395 4.16675 12.5 4.16675ZM16.6667 22.9167H33.3334V27.0834H16.6667V22.9167ZM16.6667 31.2501H33.3334V35.4167H16.6667V31.2501Z" fill="#0C336E"/>
</g>
</svg>
